<?xml version="1.0" standalone="no"?><!DOCTYPE svg PUBLIC "-//W3C//DTD SVG 1.1//EN" "http://www.w3.org/Graphics/SVG/1.1/DTD/svg11.dtd"><svg t="1563935067784" class="icon" viewBox="0 0 1026 1024" version="1.1" xmlns="http://www.w3.org/2000/svg" p-id="2821" width="128.25" height="128" xmlns:xlink="http://www.w3.org/1999/xlink"><defs><style type="text/css"></style></defs><path d="M744.727273 453.818182c-153.6 0-279.272727 125.672727-279.272728 279.272727s125.672727 279.272727 279.272728 279.272727 279.272727-125.672727 279.272727-279.272727-125.672727-279.272727-279.272727-279.272727z m0 484.072727c-114.036364 0-204.8-90.763636-204.8-204.8s90.763636-204.8 204.8-204.8 204.8 90.763636 204.8 204.8-93.090909 204.8-204.8 204.8z m0 0" fill="#ffffff" p-id="2822"></path><path d="M439.854545 840.145455H86.109091c-6.981818 0-11.636364-4.654545-11.636364-11.636364V139.636364c0-6.981818 4.654545-11.636364 11.636364-11.636364h688.872727c6.981818 0 11.636364 4.654545 11.636364 11.636364v272.290909c39.563636 4.654545 74.472727 16.290909 104.727273 32.581818L861.090909 139.636364c0-46.545455-39.563636-86.109091-86.109091-86.109091H86.109091C39.563636 53.527273 0 93.090909 0 139.636364v688.872727c0 46.545455 39.563636 86.109091 86.109091 86.109091h390.981818c-27.927273-39.563636-46.545455-88.436364-53.527273-139.636364l16.290909 65.163637z m0 0" fill="#ffffff" p-id="2823"></path><path d="M572.509091 458.472727h-76.8v62.836364h4.654545c39.563636-44.218182 88.436364-76.8 144.290909-95.418182l-72.145454 32.581818z m128-44.218182V207.127273h-186.181818v65.163636h116.363636v90.763636h-116.363636v65.163637h130.327272c27.927273-9.309091 58.181818-16.290909 90.763637-16.290909l-34.909091 2.327272z m-249.018182 181.527273h-72.145454v-55.854545h102.4v-62.836364h-102.4v-48.872727h114.036363V207.127273h-183.854545v577.163636h69.818182v-125.672727h51.2c9.309091-41.890909 25.6-79.127273 48.872727-109.381818l-27.927273 46.545454z m-72.145454-325.818182h48.872727v95.418182h-48.872727v-95.418182z m-256 162.909091c13.963636 18.618182 32.581818 62.836364 37.236363 81.454546 9.309091-11.636364 20.945455-25.6 30.254546-39.563637v309.527273h72.145454V328.145455c16.290909-41.890909 27.927273-86.109091 39.563637-128l-72.145455-18.618182C209.454545 279.272727 172.218182 372.363636 123.345455 432.872727zM677.236364 721.454545l41.890909 79.127273s67.490909-160.581818 172.218182-214.109091c-2.327273 39.563636-11.636364 72.145455 4.654545 111.709091-46.545455 9.309091-141.963636 125.672727-172.218182 181.527273-44.218182-53.527273-95.418182-95.418182-130.327273-107.054546L677.236364 721.454545z m0 0" fill="#ffffff" p-id="2824"></path></svg>