<?xml version="1.0" standalone="no"?><!DOCTYPE svg PUBLIC "-//W3C//DTD SVG 1.1//EN" "http://www.w3.org/Graphics/SVG/1.1/DTD/svg11.dtd"><svg t="1563851679481" class="icon" viewBox="0 0 1024 1024" version="1.1" xmlns="http://www.w3.org/2000/svg" p-id="5452" width="128" height="128" xmlns:xlink="http://www.w3.org/1999/xlink"><defs><style type="text/css"></style></defs><path d="M947.2 102.4H76.8c-15.36 0-25.6 10.24-25.6 25.6v640c0 15.36 10.24 25.6 25.6 25.6h332.8V896H230.4c-12.8 0-25.6 12.8-25.6 25.6s12.8 25.6 25.6 25.6h563.2c12.8 0 25.6-12.8 25.6-25.6S806.4 896 793.6 896H614.4V793.6h332.8c15.36 0 25.6-10.24 25.6-25.6V128c0-15.36-10.24-25.6-25.6-25.6z m-25.6 51.2v435.2H102.4V153.6h819.2zM563.2 896H460.8V793.6h102.4V896zM102.4 742.4V640h819.2v102.4H102.4z" fill="" p-id="5453"></path></svg>